<svg width="36" height="36" viewBox="0 0 36 36" fill="none" xmlns="http://www.w3.org/2000/svg">
<path d="M25.5 33H10.5C9.885 33 9.375 32.49 9.375 31.875C9.375 31.26 9.885 30.75 10.5 30.75H25.5C26.115 30.75 26.625 31.26 26.625 31.875C26.625 32.49 26.115 33 25.5 33Z" fill="#00A99D"/>
<path d="M30.525 8.28L24.525 12.57C23.73 13.14 22.59 12.795 22.245 11.88L19.41 4.32C18.93 3.015 17.085 3.015 16.605 4.32L13.755 11.865C13.41 12.795 12.285 13.14 11.49 12.555L5.49002 8.265C4.29002 7.425 2.70002 8.61 3.19502 10.005L9.43502 27.48C9.64502 28.08 10.215 28.47 10.845 28.47H25.14C25.77 28.47 26.34 28.065 26.55 27.48L32.79 10.005C33.3 8.61 31.71 7.425 30.525 8.28ZM21.75 22.125H14.25C13.635 22.125 13.125 21.615 13.125 21C13.125 20.385 13.635 19.875 14.25 19.875H21.75C22.365 19.875 22.875 20.385 22.875 21C22.875 21.615 22.365 22.125 21.75 22.125Z" fill="#00A99D"/>
</svg>
