<svg width="32" height="32" viewBox="0 0 32 32" fill="none" xmlns="http://www.w3.org/2000/svg">
<path d="M27.9335 5.50684L5.50684 27.9335C6.7735 28.8535 8.42684 29.3335 10.4135 29.3335H21.5868C26.4402 29.3335 29.3335 26.4402 29.3335 21.5868V10.4135C29.3335 8.42684 28.8535 6.7735 27.9335 5.50684ZM24.6668 21.6668H22.4135V24.0002C22.4135 24.5468 21.9602 25.0002 21.4135 25.0002C20.8668 25.0002 20.4135 24.5468 20.4135 24.0002V21.6668H18.0002C17.4535 21.6668 17.0002 21.2135 17.0002 20.6668C17.0002 20.1202 17.4535 19.6668 18.0002 19.6668H20.4135V17.3335C20.4135 16.7868 20.8668 16.3335 21.4135 16.3335C21.9602 16.3335 22.4135 16.7868 22.4135 17.3335V19.6668H24.6668C25.2135 19.6668 25.6668 20.1202 25.6668 20.6668C25.6668 21.2135 25.2135 21.6668 24.6668 21.6668Z" fill="white"/>
<path d="M21.5865 2.66699H10.4132C5.55984 2.66699 2.6665 5.56033 2.6665 10.4137V21.587C2.6665 23.5737 3.1465 25.227 4.0665 26.4937L26.4932 4.06699C25.2265 3.14699 23.5732 2.66699 21.5865 2.66699ZM13.9998 11.0003H7.33317C6.7865 11.0003 6.33317 10.547 6.33317 10.0003C6.33317 9.45366 6.7865 9.00033 7.33317 9.00033H13.9998C14.5465 9.00033 14.9998 9.45366 14.9998 10.0003C14.9998 10.547 14.5465 11.0003 13.9998 11.0003Z" fill="white"/>
</svg>
