<svg width="32" height="32" viewBox="0 0 32 32" fill="none" xmlns="http://www.w3.org/2000/svg">
<path d="M16.0001 2.66699C8.64008 2.66699 2.66675 8.64033 2.66675 16.0003C2.66675 23.3603 8.64008 29.3337 16.0001 29.3337C23.3601 29.3337 29.3334 23.3603 29.3334 16.0003C29.3334 8.64033 23.3601 2.66699 16.0001 2.66699ZM16.4401 22.667C16.2001 22.747 15.7867 22.747 15.5467 22.667C13.4667 21.9603 8.80008 18.987 8.80008 13.947C8.80008 11.7203 10.5867 9.92033 12.8001 9.92033C14.1067 9.92033 15.2667 10.547 16.0001 11.5337C16.7201 10.5603 17.8934 9.92033 19.2001 9.92033C21.4134 9.92033 23.2001 11.7203 23.2001 13.947C23.2001 18.987 18.5334 21.9603 16.4401 22.667Z" fill="white"/>
</svg>
