<svg width="32" height="32" viewBox="0 0 32 32" fill="none" xmlns="http://www.w3.org/2000/svg">
<path d="M17.5332 20.4935C17.2398 20.0668 16.7198 19.8268 16.1198 19.8268H13.0132C12.8132 19.8268 12.6132 19.7468 12.4932 19.5868C12.3598 19.4268 12.3065 19.2268 12.3332 19.0002L12.7198 16.5202C12.8798 15.7868 12.3865 14.9468 11.6532 14.6935C10.9598 14.4402 10.1598 14.7868 9.8265 15.2802L6.7465 19.8668V19.2935C6.7465 18.1735 6.2665 17.7202 5.09317 17.7202H4.31984C3.1465 17.7335 2.6665 18.1868 2.6665 19.3068V26.9202C2.6665 28.0402 3.1465 28.4935 4.31984 28.4935H5.09317C6.21317 28.4935 6.67984 28.0535 6.71984 27.0402L9.05317 28.8402C9.3865 29.1602 10.0932 29.3335 10.5998 29.3335H13.5465C14.5598 29.3335 15.5732 28.5735 15.8132 27.6402L17.6798 21.9735C17.8798 21.4268 17.8265 20.9068 17.5332 20.4935Z" fill="white"/>
<path d="M28.1465 3.47965H27.3732C26.2532 3.47965 25.7865 3.91965 25.7332 4.93298L23.3999 3.13298C23.0799 2.81298 22.3599 2.63965 21.8532 2.63965H18.9065C17.8932 2.63965 16.8799 3.39965 16.6399 4.33298L14.7732 9.99965C14.5732 10.5463 14.6399 11.0663 14.9199 11.4796C15.2132 11.9063 15.7332 12.1463 16.3332 12.1463H19.4399C19.6399 12.1463 19.8399 12.2263 19.9599 12.3863C20.0932 12.5463 20.1465 12.7463 20.1199 12.973L19.7332 15.453C19.5732 16.1863 20.0665 17.0263 20.7999 17.2796C21.4932 17.533 22.2932 17.1863 22.6265 16.693L25.7065 12.1063V12.6796C25.7065 13.7996 26.1865 14.253 27.3599 14.253H28.1332C29.3065 14.253 29.7865 13.7996 29.7865 12.6796V5.03965C29.7999 3.93298 29.3199 3.47965 28.1465 3.47965Z" fill="white"/>
</svg>
