<svg width="32" height="32" viewBox="0 0 32 32" fill="none" xmlns="http://www.w3.org/2000/svg">
<path d="M28.7467 14.3198L26.9333 12.2131C26.5867 11.8131 26.3067 11.0664 26.3067 10.5331V8.26642C26.3067 6.85309 25.1467 5.69309 23.7333 5.69309H21.4667C20.9467 5.69309 20.1867 5.41309 19.7867 5.06642L17.68 3.25309C16.76 2.46642 15.2533 2.46642 14.32 3.25309L12.2267 5.07975C11.8267 5.41309 11.0667 5.69309 10.5467 5.69309H8.24001C6.82667 5.69309 5.66667 6.85309 5.66667 8.26642V10.5464C5.66667 11.0664 5.38667 11.8131 5.05334 12.2131L3.25334 14.3331C2.48001 15.2531 2.48001 16.7464 3.25334 17.6664L5.05334 19.7864C5.38667 20.1864 5.66667 20.9331 5.66667 21.4531V23.7331C5.66667 25.1464 6.82667 26.3064 8.24001 26.3064H10.5467C11.0667 26.3064 11.8267 26.5864 12.2267 26.9331L14.3333 28.7464C15.2533 29.5331 16.76 29.5331 17.6933 28.7464L19.8 26.9331C20.2 26.5864 20.9467 26.3064 21.48 26.3064H23.7467C25.16 26.3064 26.32 25.1464 26.32 23.7331V21.4664C26.32 20.9464 26.6 20.1864 26.9467 19.7864L28.76 17.6798C29.5333 16.7598 29.5333 15.2398 28.7467 14.3198ZM22.24 15.9998L20.68 20.7464C20.48 21.5331 19.64 22.1731 18.7867 22.1731H16.32C15.8933 22.1731 15.2933 22.0264 15.0267 21.7598L13.0667 20.2264C13.0267 21.0798 12.64 21.4398 11.6933 21.4398H11.0533C10.0667 21.4398 9.66667 21.0531 9.66667 20.1198V13.7464C9.66667 12.8131 10.0667 12.4264 11.0533 12.4264H11.7067C12.6933 12.4264 13.0933 12.8131 13.0933 13.7464V14.2264L15.68 10.3864C15.9467 9.97309 16.6267 9.67975 17.2 9.90642C17.8267 10.1198 18.2267 10.8131 18.0933 11.4264L17.7733 13.5064C17.7467 13.6931 17.7867 13.8664 17.9067 13.9998C18.0133 14.1198 18.1733 14.1998 18.3467 14.1998H20.9467C21.4533 14.1998 21.88 14.3998 22.1333 14.7598C22.36 15.1064 22.4 15.5464 22.24 15.9998Z" fill="white"/>
</svg>
