<svg width="32" height="32" viewBox="0 0 32 32" fill="none" xmlns="http://www.w3.org/2000/svg">
<path d="M28.3332 24.6265L26.1332 25.1465C25.6398 25.2665 25.2532 25.6398 25.1465 26.1332L24.6798 28.0932C24.4265 29.1598 23.0665 29.4932 22.3598 28.6532L18.3732 24.0665C18.0532 23.6932 18.2265 23.1065 18.7065 22.9865C21.0665 22.4132 23.1865 21.0932 24.7465 19.2132C24.9998 18.9065 25.4532 18.8665 25.7332 19.1465L28.6932 22.1065C29.7065 23.1198 29.3465 24.3865 28.3332 24.6265Z" fill="white"/>
<path d="M3.60022 24.6265L5.80022 25.1465C6.29355 25.2665 6.68022 25.6398 6.78688 26.1332L7.25355 28.0932C7.50688 29.1598 8.86688 29.4932 9.57355 28.6532L13.5602 24.0665C13.8802 23.6932 13.7069 23.1065 13.2269 22.9865C10.8669 22.4132 8.74688 21.0932 7.18688 19.2132C6.93355 18.9065 6.48022 18.8665 6.20022 19.1465L3.24022 22.1065C2.22688 23.1198 2.58688 24.3865 3.60022 24.6265Z" fill="white"/>
<path d="M15.9998 2.66699C10.8398 2.66699 6.6665 6.84033 6.6665 12.0003C6.6665 13.9337 7.23984 15.707 8.2265 17.187C9.6665 19.3203 11.9465 20.827 14.5998 21.2137C15.0532 21.2937 15.5198 21.3337 15.9998 21.3337C16.4798 21.3337 16.9465 21.2937 17.3998 21.2137C20.0532 20.827 22.3332 19.3203 23.7732 17.187C24.7598 15.707 25.3332 13.9337 25.3332 12.0003C25.3332 6.84033 21.1598 2.66699 15.9998 2.66699ZM20.0798 11.707L18.9732 12.8137C18.7865 13.0003 18.6798 13.3603 18.7465 13.627L19.0665 15.0003C19.3198 16.0803 18.7465 16.507 17.7865 15.9337L16.4532 15.147C16.2132 15.0003 15.8132 15.0003 15.5732 15.147L14.2398 15.9337C13.2798 16.4937 12.7065 16.0803 12.9598 15.0003L13.2798 13.627C13.3332 13.3737 13.2398 13.0003 13.0532 12.8137L11.9198 11.707C11.2665 11.0537 11.4798 10.4003 12.3865 10.2537L13.8132 10.0137C14.0532 9.97366 14.3332 9.76032 14.4398 9.54699L15.2265 7.97366C15.6532 7.12033 16.3465 7.12033 16.7732 7.97366L17.5598 9.54699C17.6665 9.76032 17.9465 9.97366 18.1998 10.0137L19.6265 10.2537C20.5198 10.4003 20.7332 11.0537 20.0798 11.707Z" fill="white"/>
</svg>
