<svg width="32" height="32" viewBox="0 0 32 32" fill="none" xmlns="http://www.w3.org/2000/svg">
<path d="M23.4134 2.66699H8.54675C5.30675 2.66699 2.66675 5.30699 2.66675 8.54699V17.2137V17.4803C2.66675 20.7337 5.30675 23.3603 8.54675 23.3603H13.6667C14.4001 23.3603 15.0001 23.9603 15.0001 24.6937V25.987C15.0001 26.7203 14.4001 27.3203 13.6667 27.3203H10.4401C9.89341 27.3203 9.44008 27.7737 9.44008 28.3203C9.44008 28.867 9.88008 29.3337 10.4401 29.3337H21.5734C22.1201 29.3337 22.5734 28.8803 22.5734 28.3337C22.5734 27.787 22.1201 27.3337 21.5734 27.3337H18.3467C17.6134 27.3337 17.0134 26.7337 17.0134 26.0003V24.707C17.0134 23.9737 17.6134 23.3737 18.3467 23.3737H23.4267C26.6801 23.3737 29.3067 20.7337 29.3067 17.4937V17.227V8.56033C29.2934 5.30699 26.6534 2.66699 23.4134 2.66699Z" fill="white"/>
</svg>
